<?xml version="1.0" encoding="UTF-8"?>
<svg id="Calque_1" data-name="Calque 1" xmlns="http://www.w3.org/2000/svg" viewBox="0 0 6.98 65.33">
  <defs>
    <style>
      .cls-1 {
        fill: #fff;
        stroke-width: 0px;
      }
    </style>
  </defs>
  <path class="cls-1" d="m4.42,4.41c.22-.07.37-.26.37-.47,0-.17-.1-.33-.25-.42.22-.34.58-.62,1.19-.63h0s-1.51-1.73-1.52-1.71c0-.02-1.5,1.72-1.5,1.72.61,0,.98.28,1.2.62-.15.09-.25.25-.25.42,0,.22.15.4.37.47v55.69h.4V4.41Z"/>
  <path class="cls-1" d="m4.58,60.43c0-.18-.16-.33-.37-.33-.21,0-.37.15-.37.33,0,.15.12.28.28.32-2.69,3.05.06,3.5.06,3.5,2.57-.57.55-2.99.1-3.49.17-.03.3-.16.3-.32Zm-.39,3.09c-.07,0-.13-.05-.13-.12,0-.07.06-.12.14-.12.07,0,.13.05.13.12,0,.07-.06.12-.14.12Zm0-.45c-.84-1.43,0-1.63,0-1.63.86.3,0,1.63,0,1.63Z"/>
</svg>