<?xml version="1.0" encoding="UTF-8"?>
<svg id="Calque_1" data-name="Calque 1" xmlns="http://www.w3.org/2000/svg" viewBox="0 0 23.1 24.04">
  <defs>
    <style>
      .cls-1 {
        fill: #fff;
        stroke-width: 0px;
      }
    </style>
  </defs>
  <path class="cls-1" d="m10.84,13.56l-.05.05c-.31.28-1.16.67-1.16.68l-.33.11.32.11s.86.4,1.17.68l.05.05,1.43-.84-1.38-.8-.06-.03Z"/>
  <path class="cls-1" d="m1.01,15.02l.06.08.86-.73-.79-.67-.08-.06-.06.08c-.16.22-.6.51-.65.55l-.2.1.2.1s.49.33.65.55Z"/>
  <path class="cls-1" d="m20.33,8.69c-.6-.01-1.15-.28-1.65-.57-.18-.1-.36-.21-.53-.32-.09-.05-.18-.11-.26-.16.03,0,.07,0,.1,0,.31-.01.62-.09.89-.22.05-.02.1-.05.15-.08.02-.01.03-.02.05-.03.06-.03.1-.07.15-.1l.03-.02c.1-.07.18-.14.26-.22l.06-.05c.35-.36.6-.81.71-1.26.11-.45.09-.84.05-1.08-.02-.25-.09-.64-.31-1.05-.22-.41-.54-.79-.93-1.08-.46-.34-1.01-.57-1.58-.64-.64-.09-1.31.02-1.89.3-.05.02-.1.05-.15.07h-.02s-.08.06-.12.08l-.04.02s-.07.05-.11.07l-.19.13c-.2.15-.38.3-.53.46-.31.32-.55.72-.7,1.14-.09.25-.15.5-.18.72-.05-.22-.11-.47-.21-.71-.17-.42-.42-.8-.74-1.11-.16-.15-.34-.3-.55-.44l-.19-.12s-.07-.05-.11-.07l-.04-.02s-.08-.05-.13-.07h-.02s-.1-.06-.15-.08c-.59-.26-1.27-.34-1.9-.22-.58.1-1.11.34-1.56.7-.38.31-.69.7-.89,1.12-.2.42-.26.81-.26,1.05-.01.09-.02.2-.02.33,0,.22.03.48.11.76.12.45.39.88.76,1.23l.05.05c.08.07.17.15.27.21l.03.02s.06.04.1.06c0,0-.02,0-.03,0-.06,0-.11.03-.15.08-.02-.07-.08-.13-.15-.15-.07-.02-.14,0-.2.03,0-.02,0-.05,0-.07,0-.03-.02-.06-.04-.09-.02-.03-.05-.06-.08-.08-.06-.03-.13-.05-.19-.03-.02,0-.05.01-.07.02,0-.03.01-.06.01-.1h0c0-.08-.03-.15-.08-.21-.05-.05-.13-.09-.2-.09-.03,0-.07,0-.1.01.07-.11.08-.26.01-.37-.07-.11-.2-.18-.33-.16.07-.08.11-.2.07-.3-.02-.07-.07-.13-.15-.17-.03-.02-.06-.03-.09-.03.07-.06.12-.15.11-.24-.01-.09-.07-.17-.15-.22.01,0,.02-.01.03-.02.05-.04.08-.09.09-.14.02-.08-.01-.15-.07-.21.06-.01.11-.05.13-.1.05-.09.02-.2-.07-.27-.04-.03-.1-.04-.15-.03-.06.01-.1.05-.14.11-.01.03-.02.06-.02.09,0,.02,0,.05.01.07,0,.02.02.03.03.05-.03,0-.05.01-.08.03-.06.03-.1.09-.11.17,0,.01,0,.02,0,.04,0,.05.02.1.05.14.02.02.03.04.05.05-.03.01-.06.03-.09.06-.05.05-.07.12-.07.19,0,0,0,.02,0,.03,0,.08.05.15.11.2.03.02.06.03.09.04-.03.03-.06.06-.08.1-.02.04-.04.09-.04.15,0,.03,0,.07.02.1.03.08.09.15.17.19.04.02.08.02.12.02-.04.04-.06.08-.08.13-.01.03-.02.07-.02.1,0,.06.02.13.05.19,0,0,0,0,0,0-.02-.01-.03-.03-.05-.04-.09-.05-.2-.06-.29-.03-.05.02-.09.05-.13.08,0-.04,0-.08-.03-.12-.04-.08-.11-.14-.19-.17-.08-.03-.18-.02-.25.02-.04.02-.07.05-.1.09,0-.03-.02-.06-.04-.09-.05-.06-.12-.1-.2-.11-.08,0-.16.02-.22.08-.03.02-.05.05-.06.09-.01-.02-.03-.04-.05-.05-.05-.04-.12-.05-.19-.04-.07.02-.13.06-.16.12-.01.02-.02.05-.02.08-.02-.01-.03-.02-.05-.03-.05-.02-.11-.02-.17.01-.05.03-.09.08-.1.14,0,.01,0,.03,0,.04,0,.04.01.08.03.11.06.09.18.12.26.07.05-.03.09-.08.1-.14.06.05.13.08.2.06.06,0,.11-.04.14-.09,0-.01.01-.02.02-.03.04.08.12.14.22.15.09,0,.18-.04.24-.11,0,.03.02.06.03.09.04.07.1.12.17.14.11.03.22,0,.3-.08,0,0,0,.02,0,.02,0,.13.06.25.17.31.12.07.26.06.37-.02,0,.03-.01.05-.01.08,0,0,0,.01,0,.02,0,.08.04.15.1.2.06.05.13.08.21.08.03,0,.06,0,.1-.02,0,.02-.02.04-.02.07,0,.02,0,.03,0,.05,0,.05.01.1.04.15.02.03.04.05.07.07.03.02.06.03.09.04.02,0,.05,0,.07,0-.03.04-.04.09-.04.13,0,.02,0,.04.01.06.02.07.08.13.15.15-.04.04-.07.09-.07.14,0,0,0,0,0,.01,0,.1.08.18.19.19.05,0,.1-.01.14-.05.04-.04.07-.09.07-.16,0-.06-.03-.11-.07-.15-.01-.01-.03-.02-.05-.03.02-.02.04-.04.06-.06.04-.06.04-.13.02-.2-.02-.07-.07-.12-.13-.14-.02,0-.04-.01-.06-.02.02-.03.04-.06.05-.1,0-.04.01-.07,0-.12,0-.04-.02-.07-.04-.1-.04-.07-.11-.11-.19-.13-.03,0-.07,0-.1,0,.02-.04.03-.08.03-.13,0-.01,0-.02,0-.04.03.01.07.02.1.02.04,0,.09-.01.13-.03,0,.02,0,.03,0,.05,0,.02,0,.03,0,.05.01.08.06.15.13.18.03.02.07.04.11.04.04,0,.08,0,.11,0,.04,0,.07-.03.1-.05,0,.02,0,.04.02.06.03.06.08.11.15.13.07.02.14,0,.19-.03.02-.02.04-.04.06-.06,0,.02.02.03.03.05.04.04.09.07.16.07.05,0,.09-.02.13-.05-.03.3-.12.58-.24.85-.31.14-.63.25-.98.27-.06,0-.12.02-.15.06,0,0,0,0,0-.01-.01-.02-.02-.04-.03-.05-.03-.06-.06-.11-.1-.15l-.02-.03c-.06-.1-.14-.18-.21-.27l-.05-.06c-.35-.36-.79-.62-1.24-.73-.45-.12-.84-.1-1.08-.07-.25.01-.64.08-1.05.29-.42.21-.8.52-1.1.91-.35.45-.59.99-.67,1.57-.03.17-.04.33-.04.5,0,.48.1.96.3,1.39.02.05.05.1.07.15v.02s.05.08.08.13l.02.04s.04.08.07.11l.13.19c.14.2.3.38.45.54.32.31.71.56,1.13.72.25.1.5.16.72.2-.22.04-.47.1-.72.2-.42.16-.81.41-1.13.72-.16.15-.31.34-.45.54l-.13.19s-.05.07-.07.11l-.02.04s-.05.08-.07.12v.02s-.06.1-.08.14c-.2.44-.3.92-.3,1.4,0,.17.01.34.04.5.09.58.32,1.12.67,1.57.3.39.69.7,1.1.91.41.21.8.27,1.04.29.25.04.64.06,1.09-.07.45-.12.89-.38,1.25-.74l.05-.05c.07-.08.15-.17.21-.26l.02-.03s.04-.06.06-.1c0,0,0,.01,0,.02,0,0,0,0,0,0,0,.06.03.12.07.15-.07.02-.14.08-.15.15,0,.02-.01.05-.01.07,0,.05.02.09.04.13-.02,0-.05,0-.07,0-.03,0-.06.02-.09.04-.03.02-.06.04-.08.08-.03.04-.04.09-.04.15,0,.02,0,.03,0,.05,0,.02.01.05.02.07-.03,0-.06-.02-.1-.02-.08,0-.15.03-.21.08-.06.05-.09.12-.09.2,0,0,0,.01,0,.02,0,.03,0,.05.01.08-.11-.08-.26-.09-.37-.02-.11.06-.17.18-.17.31,0,0,0,.02,0,.02-.08-.08-.2-.11-.3-.08-.07.02-.13.07-.17.14-.02.03-.03.06-.03.09-.06-.07-.14-.12-.24-.11-.09,0-.17.07-.22.15,0-.01-.01-.02-.02-.03-.04-.05-.09-.08-.14-.09-.07-.02-.15,0-.21.06-.01-.06-.04-.11-.09-.13-.09-.05-.2-.03-.27.06-.02.03-.03.07-.03.11,0,.01,0,.03,0,.04.01.06.05.1.1.14.05.03.11.03.17.01.02,0,.03-.02.05-.03,0,.03.01.05.02.08.03.06.09.1.16.12.06.01.13,0,.18-.04.02-.01.04-.03.05-.05.01.03.03.06.06.09.06.06.14.08.22.08.08,0,.15-.05.2-.11.02-.03.03-.06.04-.09.02.03.06.06.09.09.07.04.16.05.25.02.09-.03.16-.09.19-.17.02-.04.03-.08.03-.12.04.04.08.07.13.08.09.03.2.02.29-.03.09-.05.15-.14.17-.24.01-.05,0-.11,0-.16.04.02.08.04.13.04.09,0,.17-.03.23-.08.07-.06.1-.14.1-.23,0-.04,0-.09-.03-.13.03,0,.07,0,.1,0,.08-.01.15-.06.19-.12.02-.03.04-.07.04-.11,0-.04,0-.07,0-.11,0-.04-.03-.07-.05-.1.02,0,.04,0,.06-.02.06-.03.11-.08.13-.15.02-.07,0-.14-.03-.19-.01-.02-.03-.04-.06-.06.02,0,.03-.02.05-.03.04-.04.07-.09.07-.15,0-.06-.03-.11-.07-.15-.04-.03-.09-.05-.14-.05-.04,0-.08.02-.12.05.02-.04.05-.09.07-.13.13-.28.2-.59.21-.9,0-.04,0-.09,0-.13.06.09.11.17.17.26.11.17.22.35.33.52.3.49.58,1.03.6,1.63,0,.11.06.2.15.22.03.02.06.02.1.02.06,0,.12-.05.15-.1.28-.4.34-1,.17-1.61-.13-.47-.49-.75-.85-.99.16-.04.33-.13.46-.3,0,0,.18-.25.07-.36-.09-.1-.25,0-.31.05-.28.18-.67-.09-.95-.34-.37-.34-.49-.92-.53-1.24,0-.01,0-.03,0-.04,0-.04,0-.08,0-.11.09-.78.67-1.36,1.46-1.48.57-.09,1.35.01,1.68.59.16.28.09.65.03.84,0,.02-.01.04-.02.06-.05.01-.09.05-.12.09-.07.08-.21.12-.36.11.06-.26,0-.57-.1-.78-.1-.22-.29-.41-.5-.47-.14-.04-.27-.03-.38.03-.02,0-.04.02-.05.03-.05.02-.1.06-.12.11-.16.33-.17.68-.03,1,.15.33.46.58.82.68.31.08.6.03.83-.15.31-.24.49-.66.49-1.14,0-.74-.6-1.17-1.18-1.34.58-.16,1.18-.59,1.18-1.34,0-.48-.18-.91-.49-1.14-.24-.18-.53-.23-.83-.15-.36.1-.67.35-.82.68-.14.32-.13.67.03,1,.03.05.07.09.12.11.02.01.03.02.05.03.11.07.25.08.38.03.21-.06.4-.25.5-.47.09-.22.16-.52.1-.78.15-.01.28.03.36.11.03.04.07.07.12.09,0,.02.02.04.02.06.06.19.13.55-.03.84-.33.57-1.11.67-1.68.59-.79-.12-1.37-.7-1.46-1.48,0-.04,0-.08,0-.11,0-.01,0-.03,0-.04.04-.32.16-.9.53-1.24.28-.26.68-.52.95-.34.07.04.22.14.31.05.11-.12-.06-.36-.07-.36-.13-.17-.3-.26-.46-.3.31-.2.61-.43.78-.78.34-.18.56-.48.75-.78.05.16.13.33.31.45,0,0,.25.17.36.06.1-.09,0-.25-.05-.31-.19-.27.07-.67.32-.96.33-.38.91-.51,1.23-.55.01,0,.03,0,.04,0,.04,0,.08,0,.11,0,.78.08,1.37.64,1.51,1.43.1.57.01,1.35-.55,1.69-.28.17-.65.1-.84.05-.02,0-.04-.01-.06-.02-.01-.05-.05-.09-.09-.12-.08-.07-.12-.21-.11-.36.26.06.57-.02.78-.11.22-.1.4-.3.46-.51.04-.14.03-.27-.04-.38,0-.02-.02-.04-.03-.05-.02-.05-.06-.09-.11-.12-.33-.15-.69-.16-1,0-.33.16-.58.47-.67.83-.08.31-.02.6.17.83.24.3.67.48,1.15.47.74-.02,1.16-.62,1.31-1.2.17.57.62,1.16,1.36,1.15.48,0,.9-.2,1.13-.52.18-.24.22-.53.13-.84-.11-.36-.37-.66-.7-.81-.32-.14-.67-.12-1,.05-.05.03-.09.07-.11.12,0,.02-.02.03-.02.05-.06.11-.07.25-.03.38.07.2.26.4.48.49.22.09.52.15.78.08.02.15-.02.29-.1.36-.03.03-.07.07-.08.12-.02,0-.04.02-.06.02-.19.06-.55.14-.84-.01-.58-.32-.7-1.1-.62-1.67.11-.79.68-1.38,1.45-1.49.04,0,.08,0,.11-.01.01,0,.03,0,.04,0,.32.03.9.14,1.25.5.26.28.54.67.36.95-.04.07-.14.22-.04.31.12.11.36-.07.36-.07.17-.13.25-.3.29-.46.24.36.53.71,1,.83.62.16,1.22.08,1.61-.2.05-.04.09-.1.1-.16,0-.04,0-.07-.02-.1-.02-.08-.11-.14-.22-.14Zm-13.72-1.6s0,0,0,.01c0,.01,0,.02,0,.04-.04-.01-.08-.02-.12-.02-.04,0-.09.02-.13.04.01-.05.02-.1,0-.16,0-.04-.03-.08-.05-.12.05.04.1.07.17.08.05.01.11,0,.16,0-.02.04-.03.08-.04.13Zm.54,7.58c-.42.29-.75.87-.84,1.47-.01.09-.02.19-.02.28,0,.17.02.35.07.53,0,0,0,0,0,0-.09-.08-.19-.15-.29-.21l-.08-.04s-.08-.04-.12-.06l-.05-.02s-.08-.03-.12-.05c-.24-.08-.5-.11-.75-.1-.24.02-.48.09-.7.19-.21.1-.4.25-.56.43l-.1.13s-.04.06-.06.09l-.03.04c-.06.09-.1.19-.14.3-.07.2-.1.42-.08.63.03.38.21.74.48.98.02.02.05.04.07.06,0,0,.02.02.03.02.03.03.07.05.11.07h.02s.05.05.08.06h.03s.05.04.08.05c.14.05.28.08.43.09.29,0,.52-.1.65-.19.16-.11.26-.22.3-.29.02-.03.04-.05.05-.07,0,0,0-.01.01-.02l.02-.03-.15-.1-.02.02s-.01.02-.02.03c0,.01-.02.03-.04.05-.04.05-.13.13-.27.21-.07.03-.14.07-.24.09-.1.02-.2.03-.29.02-.11-.01-.21-.04-.31-.09-.1-.05-.2-.13-.3-.22-.19-.2-.31-.47-.32-.76,0-.15.02-.31.08-.45.03-.08.07-.15.11-.21.01-.01.02-.03.03-.04.01-.02.03-.04.04-.06l.09-.1c.25-.26.59-.41.95-.43.19-.01.37.02.55.08.03,0,.05.02.08.03.02,0,.04.02.05.02.03.01.05.03.08.04.02,0,.03.02.05.03l.03.02c.07.05.15.1.21.15.21.18.38.4.48.64.11.24.16.49.16.75,0,.24-.05.49-.14.72-.01.03-.03.07-.05.1,0,.02-.02.04-.03.06-.02.04-.04.07-.07.11l-.02.04c-.05.08-.1.15-.16.22-.02.02-.03.04-.05.06-.29.32-.65.57-1.03.69-.39.14-.74.15-.95.14-.22-.03-.56-.11-.91-.33-.35-.21-.67-.51-.92-.86-.28-.41-.47-.88-.53-1.39-.07-.54.02-1.12.25-1.62.02-.04.04-.08.06-.12v-.03s.05-.07.07-.1l.02-.04s.04-.06.06-.09l.11-.17c.12-.18.25-.34.39-.48.27-.27.59-.49.95-.64.38-.16.77-.24,1.03-.29.35-.06.68-.09.96-.11.43-.03.81-.05,1.11-.07.11,0,.22-.01.31-.02l.32-.02c-.09.05-.18.1-.27.16Zm.47-.37c.06.02.12.04.19.06-.06.02-.13.04-.19.06v-.04s0-.08,0-.08Zm-.47-.24c.11.08.23.14.35.2l-.4-.02c-.09,0-.19-.01-.31-.02-.3-.02-.68-.03-1.11-.07-.28-.02-.61-.05-.96-.11-.26-.05-.66-.12-1.03-.29-.36-.15-.68-.37-.94-.64-.13-.14-.26-.3-.39-.48l-.11-.17s-.04-.06-.06-.09l-.02-.04s-.04-.06-.05-.1v-.02s-.05-.08-.07-.12c-.23-.5-.32-1.08-.25-1.62.06-.5.24-.98.53-1.38.25-.36.57-.66.92-.86.35-.21.69-.29.9-.33.22-.01.57,0,.96.13.38.13.74.37,1.03.69.02.02.03.04.05.06.06.07.11.14.16.22l.02.03s.05.08.07.12c0,.02.02.04.03.06.02.04.04.07.05.11.09.22.14.47.14.72,0,.26-.06.52-.16.75-.1.24-.27.46-.48.64-.06.06-.13.1-.21.15l-.03.02s-.03.02-.05.03c-.03.01-.05.03-.07.04-.02,0-.04.02-.06.02-.03.01-.05.02-.08.03-.17.06-.36.09-.55.08-.35-.02-.7-.18-.94-.43l-.09-.1s-.03-.04-.05-.06c0-.01-.02-.03-.03-.04-.04-.06-.08-.13-.11-.21-.06-.14-.09-.29-.08-.45,0-.28.12-.56.32-.76.09-.1.2-.17.3-.22.1-.05.2-.08.31-.09.09,0,.19,0,.29.02.09.02.17.05.23.08.15.08.23.17.28.22.02.02.03.03.04.05,0,.01.01.02.02.02l.02.03.15-.1-.02-.03s0-.01-.01-.02c-.01-.02-.03-.04-.04-.07-.05-.08-.15-.19-.31-.3-.14-.09-.36-.19-.65-.19-.15,0-.29.03-.42.08-.03.01-.06.02-.08.04h-.02s-.06.04-.09.06h-.02s-.07.06-.1.09c0,0-.02.02-.03.02-.02.02-.05.04-.06.05-.28.24-.46.6-.49.99-.02.21,0,.43.08.63.04.11.09.21.15.3l.03.04s.04.06.07.1l.1.13c.15.17.35.32.55.42.22.11.46.18.7.19.25.02.51-.01.75-.1.04-.01.08-.03.12-.05l.06-.02s.08-.04.12-.06l.05-.03h.02c.1-.07.2-.14.29-.22-.04.17-.06.33-.06.49,0,.1,0,.19.02.28.09.6.42,1.18.84,1.47Zm.16-4.19c-.06.09-.11.17-.17.26,0-.03,0-.07,0-.1,0-.2-.04-.4-.09-.59.13.07.29.11.45.14-.06.1-.13.2-.19.29Zm.97-2.28s-.02-.03-.03-.04c.01,0,.03.01.04.02,0,0,0,.01-.01.02Zm.89.38c-.09.06-.19.13-.29.19-.03-.16-.08-.3-.14-.43.18.05.36.07.55.07.04,0,.09,0,.13,0-.09.06-.17.12-.26.17Zm4.19-.25c-.3-.41-.88-.73-1.49-.81-.26-.03-.53-.01-.82.06,0,0,0,0,0,0,.08-.09.15-.2.21-.3l.04-.08s.04-.08.06-.12l.02-.05s.03-.08.05-.12c.08-.24.1-.5.08-.75-.02-.24-.1-.48-.21-.7-.11-.2-.26-.39-.44-.55l-.13-.1s-.06-.04-.1-.06l-.04-.03c-.09-.05-.19-.1-.3-.14-.2-.07-.42-.09-.63-.07-.38.04-.74.23-.97.5-.02.02-.04.05-.06.07,0,.01-.01.02-.02.03-.03.03-.05.07-.07.11v.02s-.05.05-.06.09v.03s-.04.05-.05.08c-.05.14-.08.28-.08.43,0,.29.11.51.2.65.11.16.22.25.3.3.03.02.05.04.07.05,0,0,.01,0,.02.01l.03.02.1-.15-.02-.02s-.02-.01-.03-.02c-.01,0-.03-.02-.05-.04-.05-.04-.14-.12-.22-.26-.03-.06-.07-.14-.09-.23-.02-.1-.03-.19-.02-.29,0-.11.04-.22.08-.32.05-.1.12-.21.21-.3.19-.2.47-.32.75-.33.15,0,.31.02.45.07.08.03.15.07.21.11.01.01.03.02.04.03.02.01.04.03.06.04l.1.08c.26.24.42.58.45.94.01.19,0,.38-.07.55,0,.03-.02.05-.03.08,0,.02-.02.04-.02.05-.01.03-.03.05-.04.08,0,.02-.02.04-.03.05l-.02.03c-.05.07-.09.15-.15.21-.18.21-.39.38-.63.49-.23.11-.49.17-.75.18-.24,0-.49-.04-.73-.13-.03-.01-.07-.03-.1-.05-.02,0-.04-.02-.06-.03-.04-.02-.07-.04-.11-.06l-.04-.02c-.08-.04-.15-.1-.22-.15-.02-.02-.04-.03-.06-.05-.33-.28-.58-.64-.71-1.02-.14-.39-.16-.73-.15-.95.03-.22.1-.56.31-.92.2-.36.49-.68.85-.94.4-.29.88-.49,1.37-.56.54-.08,1.12,0,1.62.22.04.02.08.03.12.05h.03s.07.05.1.07l.04.02s.06.03.09.05l.18.11c.18.12.35.25.48.38.28.26.5.58.66.93.17.38.26.77.31,1.03.06.35.1.68.13.96.04.43.07.81.09,1.11,0,.11.02.22.02.31l.02.32c-.05-.09-.1-.18-.16-.26Zm.32.66c-.02-.06-.04-.13-.07-.19h.05s.08,0,.08,0c-.02.06-.04.13-.06.19Zm3.55-1.39c-.24-.1-.46-.26-.65-.47-.06-.06-.11-.13-.16-.2l-.02-.03s-.02-.03-.03-.05c-.01-.02-.03-.05-.04-.07,0-.02-.02-.04-.03-.06-.01-.03-.02-.05-.03-.08-.07-.17-.09-.36-.09-.55.01-.36.16-.7.41-.95l.1-.09s.04-.03.06-.05c.01-.01.03-.02.04-.03.06-.04.13-.08.21-.12.14-.06.29-.09.45-.09.28,0,.56.11.76.3.1.09.18.19.23.29.05.1.08.2.1.31.01.09,0,.19-.01.29-.01.08-.05.16-.08.23-.07.14-.15.23-.21.28-.02.02-.03.03-.05.04-.01,0-.02.01-.02.02l-.03.02.1.15.03-.02s.01,0,.02-.01c.02-.01.04-.03.07-.05.07-.05.18-.15.29-.31.08-.14.18-.36.17-.66,0-.15-.04-.29-.09-.42-.01-.03-.02-.06-.04-.08v-.03s-.05-.06-.06-.09l-.02-.02s-.04-.07-.07-.1c0,0-.02-.02-.02-.03-.02-.02-.04-.05-.06-.06-.25-.27-.61-.44-1-.47-.21-.01-.43.02-.63.09-.11.04-.21.09-.3.15l-.04.03s-.06.04-.09.07l-.13.11c-.17.16-.31.35-.41.56-.1.22-.17.46-.18.7-.01.25.02.51.11.75.02.04.03.08.05.12l.03.06s.04.08.06.12l.03.06v.02c.08.1.14.19.23.28-.27-.05-.53-.06-.77-.02-.6.1-1.17.44-1.45.87-.07.11-.14.23-.19.36v-.41c.02-.09.02-.2.02-.31,0-.3.02-.68.04-1.11.02-.28.04-.61.09-.96.04-.26.11-.66.27-1.04.14-.36.35-.68.62-.96.13-.14.29-.27.47-.4l.17-.12s.06-.04.09-.06l.04-.02s.06-.04.1-.06h.03s.07-.05.11-.07c.5-.24,1.07-.34,1.61-.28.5.05.98.22,1.39.5.36.24.67.56.88.91.22.35.31.68.34.9.02.22.01.57-.12.96-.12.38-.36.75-.67,1.04-.02.02-.04.03-.06.05-.07.06-.14.12-.22.16l-.03.02s-.08.05-.11.07c-.02,0-.04.02-.05.03-.03.02-.07.04-.11.05-.22.1-.47.15-.71.16-.26,0-.52-.05-.75-.15Z"/>
  <path class="cls-1" d="m1.29,13.57c.16.22.39.42.63.56.23.13.45.21.63.26-.18.05-.41.12-.63.26-.24.14-.47.34-.63.56-.18.24-.28.47-.31.56-.09.26-.11.49-.11.63,0,.03,0,.06,0,.08,0,.09.02.17.04.23.03.09.08.13.14.14.06,0,.12-.03.17-.11.03-.04.05-.1.09-.2.03-.07.06-.16.09-.26.03-.1.07-.22.11-.33.04-.11.1-.28.21-.46.11-.19.26-.37.44-.51.17-.15.37-.25.52-.33.28-.13.33-.15.3-.24,0,0,0-.01,0-.02,0,0,0-.01,0-.02.02-.09,0-.1-.3-.24-.15-.08-.35-.18-.52-.33-.17-.14-.33-.33-.43-.52-.1-.18-.17-.35-.21-.46-.04-.11-.08-.23-.11-.33-.03-.09-.06-.18-.09-.26-.04-.1-.06-.16-.09-.2-.05-.08-.1-.11-.17-.11-.06,0-.11.05-.14.14-.02.06-.04.14-.04.23,0,.02,0,.05,0,.08,0,.14.02.37.11.63.03.09.13.32.31.56Z"/>
  <path class="cls-1" d="m1,6.67c.09.21.24.39.42.47.18.09.39.1.57.04.08-.03.15-.07.21-.13.05-.05.1-.11.13-.18.03-.07.05-.14.06-.21.05-.06.08-.14.08-.22,0-.21-.17-.38-.38-.38s-.38.17-.38.38c0,.19.15.35.33.37,0,0-.02.02-.03.02-.04.03-.08.05-.13.06-.1.02-.21,0-.3-.05-.1-.06-.17-.17-.22-.31-.05-.13-.06-.28-.06-.48,0-.08.01-.16.03-.25.02-.08.05-.16.09-.22.1-.17.3-.28.52-.3.19-.02.41.02.6.12.17.08.31.2.43.34.09.11.17.23.23.36.04.15.06.29.06.42,0,.12-.02.31-.13.49-.06.09-.12.17-.2.24-.07.07-.16.14-.27.23-.07.06-.15.12-.23.17-.14.1-.28.21-.42.32-.18.15-.33.3-.46.45-.14.17-.25.34-.34.51-.15.3-.24.63-.26.99v.11s0,.1,0,.1c0,.02,0,.04,0,.06,0,.04,0,.08,0,.12,0,.04,0,.07,0,.1,0,.07,0,.13.02.19l.03.24h.18s0-.25,0-.25c0-.04,0-.09,0-.15,0-.04,0-.08,0-.12,0-.03,0-.06.01-.1,0-.02,0-.05,0-.07v-.09s.03-.1.03-.1c.06-.31.16-.59.31-.84.16-.28.41-.55.73-.81.1-.08.2-.16.3-.24.11-.09.23-.18.34-.27.25-.21.42-.41.52-.61.11-.22.15-.46.12-.7-.02-.16-.07-.32-.14-.48-.04-.16-.12-.31-.21-.46-.12-.19-.29-.35-.49-.48-.18-.11-.46-.23-.81-.21-.17,0-.33.05-.47.13-.15.08-.29.21-.38.36-.06.1-.11.22-.14.35-.02.11-.03.22-.03.32,0,0,0,.02,0,.03,0,.25.04.46.12.63Z"/>
  <path class="cls-1" d="m2.82,20.74c-.11-.09-.23-.19-.34-.28-.1-.08-.2-.15-.29-.23-.32-.26-.57-.54-.73-.81-.14-.25-.25-.53-.31-.84l-.03-.18s0-.05,0-.07c0-.03,0-.07-.01-.1,0-.04,0-.08,0-.12,0-.06,0-.11,0-.15v-.24s-.19-.01-.19-.01l-.03.24c0,.06-.01.12-.02.19,0,.03,0,.07,0,.1,0,.04,0,.08,0,.12,0,.02,0,.04,0,.06v.1s0,.1,0,.1c.03.36.11.69.26.99.08.17.2.34.34.51.13.15.28.3.46.45.14.12.28.22.42.32.08.06.16.12.24.18.11.09.2.16.27.23.07.07.14.15.19.24.12.19.14.37.14.49,0,.14-.02.27-.06.42-.06.13-.13.25-.23.36-.11.14-.26.25-.43.34-.19.1-.41.14-.6.12-.22-.02-.41-.13-.52-.3-.04-.06-.07-.14-.09-.22-.02-.09-.03-.17-.03-.25,0-.2.01-.36.06-.48.05-.14.13-.25.22-.31.09-.06.2-.08.3-.05.05.01.09.03.13.06,0,0,0,0,.01,0-.21,0-.37.17-.37.38s.17.38.38.38.38-.17.38-.38c0-.03,0-.07-.01-.1,0-.12-.01-.23-.06-.33-.04-.07-.08-.13-.13-.18-.06-.06-.13-.1-.21-.13-.18-.07-.39-.05-.57.04-.18.09-.33.26-.42.47-.08.17-.11.38-.12.63,0,0,0,.02,0,.03,0,.1.01.21.04.32.03.13.08.25.14.35.09.15.23.27.38.36.14.08.3.12.47.13.35.02.64-.1.81-.21.2-.12.37-.29.49-.48.09-.15.17-.3.21-.46.05-.11.11-.27.14-.48.03-.23,0-.48-.12-.7-.1-.2-.27-.4-.52-.61Z"/>
  <path class="cls-1" d="m13.8,10.21l-.12-.32-.1.32s-.38.87-.66,1.19l-.05.05.87,1.42.78-1.39.03-.06-.05-.05c-.29-.3-.7-1.15-.7-1.15Z"/>
  <path class="cls-1" d="m14.21,1.71l.06-.08-.08-.06c-.22-.16-.53-.59-.56-.64l-.1-.2-.1.2s-.32.5-.54.67l-.08.06.75.85.65-.8Z"/>
  <path class="cls-1" d="m11.37,1.93c.07.03.16.05.26.08.1.03.22.07.33.1.11.04.28.1.47.2.19.1.37.25.52.42.15.17.26.37.34.51h0c.14.28.16.33.24.3,0,0,.01,0,.02,0,0,0,0,0,.02,0,.09.02.1,0,.23-.31.08-.15.18-.35.32-.53.14-.18.32-.33.51-.44.18-.11.35-.17.46-.22.11-.04.23-.08.33-.12.09-.03.18-.06.25-.09.1-.04.15-.07.2-.09.08-.05.11-.11.1-.17,0-.06-.05-.11-.14-.14-.06-.02-.14-.03-.23-.04-.13,0-.4,0-.71.13-.09.03-.31.13-.55.32-.21.16-.41.4-.55.64-.13.23-.2.46-.25.64-.05-.18-.13-.41-.27-.63-.14-.24-.35-.46-.57-.62-.25-.18-.48-.27-.57-.3-.32-.11-.58-.11-.71-.1-.09,0-.17.02-.23.05-.11.04-.13.1-.14.15h0s0,0,0,0c0,.06.04.11.11.15.04.03.1.05.2.09Z"/>
  <path class="cls-1" d="m22.92,1.85c-.09-.15-.21-.29-.36-.38-.1-.06-.22-.11-.35-.14-.12-.02-.24-.03-.35-.03-.25,0-.46.05-.63.13-.21.09-.38.25-.46.43-.09.18-.1.39-.03.57.03.08.08.15.13.21.05.05.11.1.18.13.07.03.14.05.21.05.07.05.14.07.23.07.21,0,.37-.18.37-.38,0-.1-.04-.19-.12-.26s-.17-.11-.27-.11c-.19,0-.35.15-.37.34,0,0-.02-.02-.02-.02-.03-.04-.05-.08-.06-.13-.03-.1,0-.21.05-.3.06-.1.16-.18.3-.23.12-.05.28-.07.48-.07.08,0,.16,0,.25.03.09.02.16.05.22.09.17.1.29.29.31.51.02.19-.01.41-.1.6-.08.17-.19.32-.33.43-.11.09-.23.17-.35.23-.15.04-.29.07-.42.07-.12,0-.31-.01-.5-.12-.09-.06-.17-.12-.24-.19-.07-.07-.15-.15-.23-.26-.06-.07-.12-.15-.18-.23-.1-.14-.21-.28-.33-.42-.15-.18-.31-.33-.46-.45-.17-.14-.35-.25-.52-.33-.3-.14-.64-.22-.99-.24h-.11s-.1,0-.1,0c-.02,0-.04,0-.06,0-.04,0-.08,0-.12,0-.03,0-.07,0-.1,0-.07,0-.13.01-.19.02l-.24.04.02.18h.24s.09,0,.15,0c.04,0,.08,0,.12,0,.03,0,.06,0,.1,0,.02,0,.05,0,.07,0h.09s.1.03.1.03c.31.05.6.15.85.29.28.16.56.39.83.71.08.1.16.19.24.29.09.11.19.23.28.34.22.25.42.41.62.51.22.11.47.14.7.1.21-.03.37-.1.48-.15.16-.05.31-.12.45-.22.19-.13.35-.3.47-.5.1-.18.22-.46.19-.82-.01-.17-.06-.33-.14-.47Z"/>
  <path class="cls-1" d="m21.52,5.39c0-.08-.02-.16-.08-.21-.03-.03-.06-.04-.09-.06.02-.01.04-.03.05-.05.03-.05.05-.12.03-.19-.02-.07-.06-.13-.12-.16-.03-.01-.05-.02-.08-.02.01-.02.02-.03.03-.05.02-.05.01-.11-.02-.17-.03-.05-.08-.09-.14-.1-.05,0-.1,0-.15.03-.06.04-.09.11-.09.17,0,.03,0,.06.03.09.03.05.08.09.14.1-.04.04-.07.1-.07.16,0,.02,0,.03,0,.05.01.06.04.11.1.14.01,0,.02.01.03.02-.08.05-.14.13-.14.22,0,0,0,.01,0,.02,0,.09.05.17.12.22-.03,0-.06.02-.09.04-.07.04-.12.1-.14.17,0,.03-.01.05-.01.08,0,.08.03.16.09.22-.13,0-.26.06-.33.18-.03.05-.04.11-.04.16,0,.07.02.15.07.21-.03,0-.07-.01-.1,0-.08,0-.15.04-.2.1-.05.06-.07.12-.07.2,0,0,0,0,0,0,0,.03,0,.06.02.1-.02,0-.04-.02-.07-.02-.07,0-.13,0-.19.04-.03.02-.05.05-.07.07-.02.03-.03.06-.04.09,0,.02,0,.04,0,.06,0,0,0,0,0,0-.06-.04-.13-.05-.2-.03-.07.02-.13.08-.15.16-.04-.04-.09-.07-.15-.07-.1,0-.19.08-.2.19,0,0,0,.01,0,.02,0,.05.02.09.05.13.04.04.09.07.16.07.06,0,.11-.03.15-.07.01-.02.02-.03.03-.05.02.02.04.04.06.05.06.03.13.04.2.02.07-.02.12-.07.14-.13,0-.02.01-.04.01-.06.03.02.06.04.1.05.04,0,.07,0,.12,0,.04,0,.07-.02.1-.04.07-.04.11-.11.12-.19,0-.03,0-.07,0-.1.04.02.08.03.13.03.09,0,.17-.04.22-.11.06-.06.09-.15.08-.24,0-.04-.02-.09-.04-.13.05.01.1.02.16,0,.1-.02.18-.09.23-.18.05-.09.06-.2.03-.29-.02-.05-.05-.09-.08-.13.04,0,.08-.01.12-.03.08-.04.14-.11.16-.19.02-.09.01-.18-.03-.25-.02-.04-.05-.07-.09-.09.03,0,.06-.02.08-.04.06-.05.1-.12.1-.2Z"/>
  <path class="cls-1" d="m4.95,3.86c.15.09.3.16.46.2.11.04.27.1.49.13.24.03.48-.02.69-.13.2-.11.39-.28.6-.53.09-.11.18-.23.27-.35.07-.1.15-.2.23-.3.26-.33.53-.58.8-.74.24-.15.52-.26.83-.32l.09-.02h.09s.04-.02.07-.02c.03,0,.07-.01.1-.01.04,0,.08,0,.12-.01.06,0,.11-.01.15-.01h.24s0-.19,0-.19l-.24-.03c-.06,0-.12,0-.18-.01-.03,0-.07,0-.1,0-.04,0-.08,0-.12,0-.02,0-.04,0-.06,0h-.1s-.1.01-.1.01c-.36.03-.69.13-.98.28-.17.09-.34.2-.5.35-.15.13-.3.29-.44.47-.11.15-.22.29-.32.43-.06.08-.11.16-.17.23-.08.12-.16.2-.23.27-.07.07-.14.14-.23.2-.19.12-.37.15-.49.15-.14,0-.28-.02-.43-.05-.13-.05-.25-.13-.36-.22-.14-.11-.26-.25-.35-.42-.1-.19-.15-.4-.13-.6.02-.22.13-.42.29-.52.06-.04.14-.07.22-.1.09-.02.17-.03.25-.04.2,0,.36,0,.49.05.14.04.25.12.31.22.06.09.08.2.06.3-.01.05-.03.09-.05.13,0,0,0,0,0,.01,0-.21-.18-.37-.38-.37-.21,0-.37.17-.37.38h0c0,.11.04.2.12.27.07.07.17.11.27.1.03,0,.07,0,.1-.02.12,0,.23-.02.33-.07.07-.04.13-.08.17-.14.05-.06.1-.14.12-.22.06-.18.05-.39-.05-.56-.09-.18-.27-.33-.48-.41-.18-.07-.38-.11-.63-.1-.11,0-.23.01-.35.04-.13.03-.24.09-.35.15-.15.1-.27.23-.35.39-.07.14-.11.3-.12.47,0,.02,0,.03,0,.05,0,.33.12.59.23.76.13.2.3.37.49.48Z"/>
</svg>