<?xml version="1.0" encoding="UTF-8"?>
<svg id="Calque_1" data-name="Calque 1" xmlns="http://www.w3.org/2000/svg" viewBox="0 0 6.98 63.4">
  <defs>
    <style>
      .cls-1 {
        fill: #fff;
        stroke-width: 0px;
      }
    </style>
  </defs>
  <path class="cls-1" d="m5.1,49.75c-.12-.54-.25-1.07-.4-1.57-.13-.44-.26-.82-.37-1.14-.13-.54-.32-1.29-.54-2.16l-.19-.75c-.13-.52-.26-1.06-.39-1.64-.17-.75-.3-1.42-.41-2.06-.18-1.05-.29-2.07-.34-3.02-.06-.9.04-1.71.16-2.45.04-.25.08-.47.12-.7.05-.12.08-.25.12-.36,0-.02.02-.04.03-.06.12-.24.29-.55.47-.76.1-.12.25-.26.41-.25.12,0,.25.08.4.22l.02.02s.04.04.06.06l.02.02s.01.01.02.02l.04.05c.04.05.07.11.11.19.04.18.07.38.07.58,0,.26-.01.53-.06.78-.03.15-.06.28-.1.41-.05.14-.1.26-.16.36-.06.1-.13.19-.19.24-.05.03-.09.06-.14.06l.16-.59c.01-.05.03-.14.05-.25,0-.06.02-.13.02-.21,0-.07,0-.17-.04-.28-.04-.13-.12-.24-.22-.3-.09-.05-.2-.07-.32-.04-.18.04-.35.16-.51.35-.08.1-.15.21-.21.34-.07.16-.11.33-.12.5,0,.1,0,.21.01.31.02.1.04.2.08.29.04.09.08.17.13.24.04.06.09.12.15.18.05.05.11.1.16.13.06.04.12.08.17.1h.02s.04.03.07.04h.04s.13.05.13.05h.07s.05.02.08.02c.2,0,.4-.07.57-.21.14-.12.27-.29.37-.5.15-.32.24-.69.28-1.12.02-.33.01-.65-.04-.96-.05-.3-.13-.53-.2-.66-.03-.11-.06-.21-.1-.3l-.04-.08s-.02-.04-.03-.06v-.02s-.06-.08-.09-.12l-.02-.03c-.09-.13-.17-.22-.26-.3-.12-.11-.25-.18-.38-.22-.15-.04-.32-.04-.48.03-.14.06-.29.15-.42.29-.21.21-.4.5-.61.9-.25.49-.44.99-.61,1.43l-.11.28c-.13.34-.24.63-.34.88-.01.03-.02.06-.04.09-.08.11-.15.22-.24.34-.1.15-.21.33-.31.56,0,.02-.01.03-.02.05l-.34.4.23-.13s0,0,0,0l-.12.34-.1.35c-.02.08-.04.16-.06.25,0,.04-.02.08-.03.13l-.02.07s-.02.08-.03.13l-.07.43s0,.05-.01.07v.1c-.09.51-.11,1.08-.1,1.7.02.73.1,1.48.26,2.24.12.62.28,1.24.49,1.87.42,1.28.74,2.17.89,2.59.08.31.18.71.3,1.17l.4,1.53c.16.61.33,1.22.49,1.81.06.2.11.41.17.62.03.12.06.24.1.37.09.34.18.68.28,1.03l.41,1.5c.12.45.25.93.35,1.39.11.48.18.9.23,1.27.05.38.07.76.06,1.13-.01.51-.08,1.02-.2,1.51,0,.01,0,.02-.01.03-.07.17-.16.3-.26.36h-.01s-.03.03-.05.03c0,0-.02,0-.03.01-.02,0-.04.01-.05.02h-.01s-.02,0-.04.01c-.07.01-.14.01-.2,0-.2-.03-.42-.13-.61-.29-.09-.07-.16-.16-.23-.24-.06-.07-.11-.15-.14-.22-.02-.14-.05-.41,0-.73v-.09c.03-.14.05-.28.08-.41.02-.09.04-.16.06-.22,0-.02.01-.04.02-.05,0-.01.01-.03.02-.04,0-.01.01-.03.02-.04v-.02c.05-.06.08-.08.11-.09.03,0,.07,0,.11.01.1.04.21.14.27.25.03.05.04.11.05.16v.02s0,.06,0,.06c0,0,0,.02,0,.03,0,.01,0,.03,0,.04l-.06.15-.18.41.4-.28s.03-.02.04-.03h.01s.03-.05.05-.07c.02-.03.04-.05.05-.08l.02-.04s.01-.04.02-.05l.03-.09c.03-.13.03-.28,0-.42-.06-.31-.22-.59-.44-.76-.15-.11-.31-.16-.48-.14-.11.02-.2.06-.28.11l-.07.05-.05.05s-.07.08-.1.13l-.06.1s-.03.06-.05.09l-.02.06s-.04.1-.05.15c-.03.11-.06.24-.07.38l-.02.17v.17c0,.06,0,.11,0,.16v.15c.01.05.02.1.02.14l.02.16.03.13s.02.08.03.11v.02c.04.12.09.24.14.35.02.12.05.25.1.38.05.12.12.3.23.46.14.21.45.58.91.64.04,0,.08,0,.12,0,.11,0,.22-.02.32-.06h.03s.05-.03.08-.05l.11-.07c.05-.04.11-.09.16-.15.05-.05.09-.11.13-.17h0s.03-.07.04-.09l.02-.04s.03-.06.04-.1h0c.02-.08.04-.14.06-.21l.02-.09s0-.05.01-.08v-.03s0-.02,0-.02c.01-.04.03-.09.04-.14.15-.3.33-.71.48-1.25l.02-.08c.02-.06.04-.12.05-.18l.16-.69c.01-.07.03-.14.04-.21.08-.44.15-.91.19-1.38.05-.5.07-1.03.08-1.55,0-.52,0-1.08-.04-1.66-.08-1.37-.28-2.76-.58-4.12Zm-1.36-14.55v.1s-.03.53-.03.53h-.05s-.05-.04-.05-.04c-.03-.01-.06-.03-.1-.05-.03-.02-.06-.04-.09-.06-.05-.04-.09-.09-.11-.14-.02-.05-.03-.09-.04-.14,0-.11.05-.28.13-.42.07-.12.16-.23.24-.27.02-.01.04-.02.05-.02,0,0,0,0,0,.01.02.03.03.07.04.12,0,.05.01.11.02.15,0,.09,0,.16,0,.22Zm.47,19.31l-.21-.77c-.1-.35-.19-.7-.29-1.04l-.07-.25c-.07-.26-.14-.5-.22-.74-.18-.58-.37-1.18-.57-1.77-.09-.27-.18-.53-.26-.78l-.24-.69c-.15-.43-.28-.8-.39-1.11-.17-.69-.4-1.61-.69-2.71-.16-.63-.29-1.22-.39-1.81-.12-.71-.19-1.41-.21-2.07-.01-.58,0-1.08.06-1.53v-.1s.01-.03.02-.05l.06-.39s.01-.07.02-.1v-.07s.03-.09.04-.13c.01-.07.03-.14.04-.2l.04-.15c-.02.2-.02.41-.03.67,0,.52.02,1.08.08,1.67.07.67.17,1.36.33,2.16.13.68.28,1.32.41,1.86.07.28.13.56.2.82l.19.73c.12.41.23.8.34,1.15.14.68.38,1.65.65,2.72.06.24.12.48.19.73.24.93.51,1.99.75,3.11.07.34.14.7.21,1.06l-.05-.21Zm.78.51c-.08-.55-.17-1.08-.28-1.6-.14-.64-.3-1.31-.52-2.06-.19-.68-.39-1.31-.54-1.78-.17-.53-.33-1.02-.47-1.45-.15-.45-.27-.83-.37-1.15-.07-.33-.15-.73-.24-1.18-.09-.49-.19-1.04-.28-1.57l-.09-.5c-.08-.44-.16-.89-.24-1.37-.14-.82-.22-1.46-.29-2.08-.11-1.13-.12-2.13-.01-2.97l.05-.33c.01-.07.02-.14.04-.21,0-.04.01-.07.02-.11.02-.1.04-.2.07-.29.02-.09.05-.18.08-.26,0-.01.01-.03.02-.04-.01.09-.03.19-.04.29-.01.11-.02.23-.03.35v.18s-.01.08-.01.12v.25s0,.19,0,.19c0,1.02.11,2.12.29,3.19.12.68.27,1.38.46,2.12.17.66.35,1.26.53,1.82.3.95.58,1.76.79,2.34l.1.32c.07.31.17.69.26,1.12.1.5.2,1.03.29,1.57.22,1.34.37,2.7.45,4.02.03.58.05,1.11.06,1.59,0,.06,0,.11,0,.17-.02-.24-.05-.47-.08-.69Z"/>
  <path class="cls-1" d="m.1,25.2s0,.05.01.07l.07.43s.02.08.03.13l.02.07s.02.08.03.13c.02.08.04.17.06.25l.1.35.12.34s0,0,0,0l-.23-.13.34.4s.01.03.02.05c.1.22.22.41.31.56.08.12.16.23.24.34.01.03.02.06.04.09.11.25.22.54.34.88l.11.28c.17.44.36.94.61,1.43.21.4.4.69.61.9.14.14.28.23.42.29.16.06.33.07.48.03.13-.04.26-.11.38-.22.09-.08.17-.17.26-.3l.02-.03s.05-.08.08-.12v-.02s.03-.04.05-.06l.04-.08c.04-.09.07-.19.1-.3.06-.14.15-.36.2-.66.05-.31.07-.64.04-.96-.03-.44-.13-.81-.28-1.12-.1-.21-.23-.38-.37-.5-.17-.14-.37-.22-.57-.21-.03,0-.05,0-.08,0h-.07s-.13.05-.13.05h-.04s-.04.03-.07.04h-.02c-.06.04-.11.07-.17.11-.05.04-.11.08-.16.13-.06.06-.11.12-.15.18-.05.07-.1.15-.13.24-.04.09-.07.19-.08.29-.02.1-.02.21-.01.31.01.17.05.34.12.5.05.12.12.23.21.34.16.19.33.31.51.35.12.03.23.01.32-.04.1-.06.18-.17.22-.3.03-.11.04-.21.04-.28,0-.08,0-.15-.02-.21-.02-.11-.04-.19-.05-.25l-.16-.59s.1.03.14.06c.07.05.13.13.19.24.06.1.11.22.16.36.04.12.07.26.1.41.05.25.07.52.06.78,0,.2-.03.4-.07.58-.04.08-.07.13-.11.19l-.04.05s-.01.02-.02.02l-.02.02s-.04.04-.06.06l-.02.02c-.15.14-.29.21-.4.22-.16,0-.31-.13-.41-.25-.18-.21-.34-.52-.47-.76,0-.02-.02-.04-.03-.06-.03-.12-.07-.24-.12-.36-.04-.22-.08-.45-.12-.7-.12-.74-.22-1.55-.16-2.45.05-.95.16-1.97.34-3.02.11-.64.24-1.31.41-2.06.13-.58.26-1.12.39-1.64l.19-.75c.22-.87.41-1.62.54-2.16.11-.32.24-.7.37-1.14.15-.5.28-1.02.4-1.57.3-1.37.49-2.75.58-4.12.03-.58.05-1.14.04-1.66,0-.53-.03-1.05-.08-1.55-.05-.47-.11-.94-.19-1.38-.01-.07-.03-.14-.04-.21l-.16-.69c-.02-.06-.04-.12-.05-.18l-.02-.08c-.16-.53-.34-.95-.48-1.25-.01-.05-.03-.1-.04-.14,0,0,0-.02,0-.02v-.03s0-.05-.01-.08l-.02-.09c-.01-.07-.04-.13-.06-.2h0s-.03-.08-.04-.11l-.02-.04s-.03-.05-.04-.08h0c-.04-.07-.08-.14-.13-.19-.05-.06-.1-.11-.16-.15l-.11-.07s-.06-.03-.08-.04h-.03c-.11-.05-.22-.07-.32-.07-.04,0-.08,0-.12,0-.47.06-.77.43-.91.64-.11.16-.18.34-.23.46-.04.13-.08.26-.1.38-.06.11-.1.23-.14.35v.02s-.02.07-.03.11l-.03.13-.02.16s-.01.09-.01.14v.15c0,.05-.01.11,0,.16v.17s.02.17.02.17c.02.14.04.27.07.38.01.05.03.1.05.15l.02.06s.03.06.05.1l.06.1s.06.09.1.13l.05.05.07.05c.08.06.17.1.28.11.16.02.32-.03.48-.14.22-.17.39-.45.44-.76.03-.14.03-.29,0-.41l-.03-.09s-.01-.04-.02-.06l-.02-.04s-.03-.05-.05-.08c-.02-.02-.04-.04-.05-.06h-.01s-.03-.04-.04-.05l-.4-.28.18.41.06.15s0,.02,0,.04c0,0,0,.02,0,.03v.06s0,.02,0,.02c0,.05-.02.11-.05.16-.06.11-.16.21-.27.25-.05.02-.09.02-.11.01-.03,0-.05-.03-.1-.09v-.02s-.03-.02-.03-.04c0-.01-.01-.03-.02-.04,0-.01-.01-.03-.02-.05-.02-.06-.04-.13-.06-.22-.03-.13-.05-.27-.07-.41v-.09c-.05-.33-.02-.59,0-.73.04-.07.09-.14.14-.22.07-.08.14-.17.23-.24.19-.16.41-.27.61-.29.07-.01.13,0,.2,0,.01,0,.02,0,.04,0h.01s.04.02.05.02c0,0,.02,0,.03.01.02,0,.04.02.05.03h.01c.1.07.19.19.26.37,0,0,0,.02.01.03.12.49.19.99.2,1.51,0,.37-.01.75-.06,1.13-.05.38-.12.79-.23,1.27-.11.46-.23.94-.35,1.39l-.41,1.5c-.1.35-.19.69-.28,1.03-.03.12-.06.25-.1.37-.06.22-.11.42-.17.62-.16.59-.33,1.2-.49,1.81l-.4,1.53c-.12.46-.22.85-.3,1.17-.15.42-.47,1.32-.89,2.59-.2.63-.36,1.25-.49,1.87-.15.76-.24,1.51-.26,2.24-.02.62.01,1.19.09,1.7v.1Zm3.63,4.17c0,.05-.02.1-.04.12,0,0,0,0,0,.01,0,0-.02,0-.05-.02-.08-.04-.17-.15-.24-.27-.08-.14-.13-.3-.13-.42,0-.05.01-.1.04-.14.02-.05.06-.09.11-.14.03-.02.06-.05.09-.06.04-.02.07-.04.1-.05l.05-.02h.05s.03.51.03.51v.1c0,.05.01.13,0,.22,0,.05,0,.1-.02.15Zm.98-18.59c.11-.52.2-1.05.28-1.6.03-.22.06-.45.08-.69,0,.06,0,.11,0,.17,0,.49-.02,1.01-.06,1.59-.08,1.32-.23,2.68-.45,4.02-.09.55-.19,1.08-.29,1.57-.09.43-.18.81-.26,1.12l-.1.32c-.2.59-.48,1.39-.79,2.34-.17.55-.36,1.16-.53,1.82-.19.74-.34,1.44-.46,2.12-.18,1.07-.28,2.17-.29,3.19v.19s0,.25,0,.25c0,.04,0,.08,0,.12v.18c.02.12.03.24.04.35,0,.1.02.2.04.29,0-.01-.01-.03-.02-.04-.03-.08-.06-.17-.08-.26-.02-.09-.05-.2-.07-.29,0-.04-.01-.07-.02-.11-.01-.07-.03-.14-.04-.21l-.05-.33c-.11-.84-.1-1.84.01-2.97.06-.62.15-1.26.29-2.08.08-.48.16-.93.24-1.37l.09-.5c.09-.53.19-1.09.28-1.57.09-.45.17-.85.24-1.18.1-.32.23-.7.37-1.15.14-.43.3-.92.47-1.45.15-.47.35-1.1.54-1.78.21-.75.38-1.42.52-2.06ZM.88,21.36c.1-.59.23-1.18.39-1.81.29-1.1.52-2.02.69-2.71.11-.3.24-.68.39-1.11l.24-.69c.08-.25.17-.51.26-.78.19-.59.38-1.19.57-1.77.08-.24.15-.48.22-.74l.07-.25c.1-.34.19-.68.29-1.04l.21-.77.05-.21c-.06.36-.13.71-.21,1.06-.24,1.11-.51,2.17-.75,3.11-.06.25-.13.49-.19.73-.28,1.07-.51,2.04-.65,2.72-.11.35-.23.73-.34,1.15l-.19.73c-.07.26-.13.53-.2.82-.13.54-.28,1.18-.41,1.86-.16.8-.26,1.49-.33,2.16-.06.59-.08,1.15-.08,1.67,0,.25.01.47.03.67l-.04-.15c-.02-.07-.03-.14-.04-.2,0-.04-.02-.09-.03-.13v-.07s-.03-.07-.03-.1l-.06-.39s0-.04,0-.05v-.1c-.06-.45-.08-.96-.07-1.53.02-.66.09-1.36.21-2.07Z"/>
</svg>