<?xml version="1.0" ?><svg id="Outline" viewBox="0 0 512 512" xmlns="http://www.w3.org/2000/svg"><defs><style>.cls-1{fill:#262626;}</style></defs><path class="cls-1" d="M409.42,403.06,285,278.62c41.3-48.86,38.94-122.28-7.11-168.32a124.43,124.43,0,1,0-9,184.25L393.39,419.09a11.33,11.33,0,0,0,16-16ZM117.85,270.33a101.82,101.82,0,1,1,144,0A101.15,101.15,0,0,1,117.85,270.33Z"/><path class="cls-1" d="M249.71,188H200.65V137.83a11.34,11.34,0,1,0-22.67,0V188H126.64a11.34,11.34,0,0,0,0,22.68H178v50.19a11.34,11.34,0,1,0,22.67,0V210.7h49.06a11.34,11.34,0,0,0,0-22.68Z"/></svg>